<svg xmlns="http://www.w3.org/2000/svg" viewBox="0,0,512,512">
	<path fill="#9eb2c0" d="m106.721477,42.805408l0,42.596074l-42.596074,0l-42.594901,0l0,21.492647l0,21.492647l21.298037,0l21.296865,0l0,172.870844c0,188.572094 -0.155922,175.52035 2.179394,182.563813c4.748007,14.326086 16.002543,24.720119 29.787005,27.504445c2.920318,0.590863 316.896078,0.590863 319.816396,0c13.784462,-2.784325 25.038998,-13.178358 29.787005,-27.504445c2.335316,-7.043464 2.179394,6.008281 2.179394,-182.563813l0,-172.870844l21.296865,0l21.298037,0l0,-21.492647l0,-21.492647l-42.594901,0l-42.596074,0l0,-42.596074l0,-42.594901l-149.278523,0l-149.278523,0l0,42.594901m255.571753,21.298037l0,21.298037l-106.29323,0l-106.29323,0l0,-21.298037l0,-21.298037l106.29323,0l106.29323,0l0,21.298037m-170.381951,234.469499l0,127.590095l-21.102255,0l-21.102255,0l0,-127.590095l0,-127.590095l21.102255,0l21.102255,0l0,127.590095m85.190975,0l0,127.590095l-21.102255,0l-21.102255,0l0,-127.590095l0,-127.590095l21.102255,0l21.102255,0l0,127.590095m85.190975,0l0,127.590095l-21.102255,0l-21.102255,0l0,-127.590095l0,-127.590095l21.102255,0l21.102255,0l0,127.590095"/>
</svg>
